<?xml version="1.0" encoding="utf-8"?>
<!-- Generator: Adobe Illustrator 21.1.0, SVG Export Plug-In . SVG Version: 6.00 Build 0)  -->
<svg version="1.1" id="LEGO_logo" xmlns="http://www.w3.org/2000/svg" xmlns:xlink="http://www.w3.org/1999/xlink" x="0px" y="0px"
	 viewBox="0 0 197.6 198.4" style="enable-background:new 0 0 197.6 198.4;" xml:space="preserve">
<style type="text/css">
	.st0{fill:#FFFFFF;}
	.st1{fill:#FFED00;}
	.st2{fill:#C20012;}
</style>
<g>
	<path class="st0" d="M29.3,29.3v139.8h139.8V29.3H29.3z"/>
	<path class="st1" d="M29.3,29.3v139.8h139.8V29.3H29.3z M159.8,87.4c-0.2,4.4-1.6,9.8-2.8,13.4c-4.9,14.6-10.6,23.7-23.8,23.7
		c-3.9,0-10.8-1-13.3-7.9l-0.6-1.6l-1.1,1.4c-4.1,5.2-10.3,8.2-16.8,8.3c-5,0-9.1-1.7-11.7-4.9l-0.7-0.9l-0.8,0.8
		c-2.8,3.1-7.7,4.9-13.4,4.9c-4.5,0-8.3-1.5-10.9-4.3l-0.7-0.8l-0.7,0.7c-2.8,2.9-7.3,4.3-12.9,4.2c-6.8-0.2-10.9-4-11.1-10.1
		c-0.2-9.5,9-29.6,12.9-35.7c2.5-4.1,5.9-6.1,10.4-6.1c3.1,0,5.2,0.6,6.5,2c1.1,1.2,1.4,2.2,1.5,4.7l0.1,3.2l1.7-2.7
		c4.1-6.5,10.8-7.4,17.4-7.4c4.6,0,8.7,1.7,10.3,4.3l0.6,1l0.9-0.7c3.4-2.9,8.3-4.5,13.6-4.5c5.8,0,10.1,1.5,12.6,4.3
		c0.6,0.7,1,1.1,1.5,2.2l0.7,1.4l1-1.2c3.7-4.4,8.8-6.6,15.1-6.6c5,0,8.8,1.3,11.2,3.9C159.6,79.5,160,84.1,159.8,87.4z"/>
	<path class="st2" d="M29.3,29.3v139.8h139.8V29.3H29.3z M163.8,92.8c-0.6,5.1-4.1,14.5-5.9,18.3c-4.9,10.1-11.5,17.9-24.1,17.9
		c-6.7,0-12.3-2.2-15.5-6.3c-4.7,4.2-10.6,6.3-17,6.3c-4.9,0-9.2-1.4-12.5-4c-3.6,2.6-8.5,4-13.9,4c-4.5,0-8.6-1.2-11.8-3.5
		c-3.5,2.3-8.2,3.5-13.6,3.4c-9-0.2-15.3-5.9-15.4-14.3c-0.2-11,9.1-31.3,13.5-38.3C50.8,70.9,55.8,68,62,68c6.7,0,9.1,1.9,10.3,4.3
		c5.1-4.4,12-4.6,16.8-4.6c5.4,0,8.7,1.4,11.6,3.7c3.9-2.4,8.5-3.6,13.9-3.6c6.9,0,12,1.6,15.6,5.1c4.2-3.5,9.4-5,15.2-5
		c7.7,0,12.8,2.8,15.8,6.9C165.3,80.7,164.6,86.6,163.8,92.8z"/>
	<path d="M28.3,28.3v141.7h141.7V28.3H28.3z M168.1,30.3v137.8H30.3V30.3H168.1z"/>
	<path d="M163.1,70.9v-1h0.7c0.5,0,0.7,0.2,0.7,0.5c0,0.2-0.2,0.5-0.6,0.5H163.1z M165.4,72.9l-0.4-0.7c-0.4-0.6-0.5-0.7-0.8-0.8v0
		c0.6-0.1,0.9-0.5,0.9-1c0-0.6-0.4-1-1.1-1h-1.8v3.5h0.7v-1.4h0.1c0.3,0,0.4,0,0.6,0.2c0.1,0.1,0.4,0.4,0.5,0.7l0.3,0.6H165.4z
		 M163.7,68.4c1.5,0,2.7,1.2,2.7,2.7c0,1.5-1.2,2.7-2.7,2.7c-1.5,0-2.7-1.2-2.7-2.7C161,69.6,162.2,68.4,163.7,68.4z M163.7,67.7
		c-1.9,0-3.4,1.5-3.4,3.4c0,1.9,1.5,3.4,3.4,3.4c1.9,0,3.4-1.5,3.4-3.4C167.1,69.2,165.6,67.7,163.7,67.7z"/>
	<path d="M145.2,71.3c-7.3,0-12.4,2.9-15.8,7c-0.6-1.2-1-1.7-1.6-2.4c-2.8-3.2-7.3-4.7-13.4-4.7c-5.9,0-10.8,1.8-14.3,4.8
		c-1.8-2.9-6-4.8-11.1-4.8c-6.7,0-13.9,0.9-18.3,7.9c-0.1-2.5-0.3-3.8-1.7-5.3c-1.7-1.8-4.5-2.3-7.2-2.3c-4.9,0-8.6,2.1-11.3,6.5
		c-3.9,6.2-13.2,26.4-13,36.3c0.1,6.3,4.4,10.9,12,11.1c6,0.1,10.6-1.4,13.6-4.4c2.7,2.9,6.7,4.6,11.6,4.6c5.4,0,10.9-1.6,14.1-5.2
		c2.7,3.3,7,5.3,12.5,5.2c7.2,0,13.5-3.4,17.6-8.7c2.3,6.1,8,8.6,14.2,8.6c13.7,0,19.7-9.4,24.7-24.3c1.1-3.4,2.6-9,2.9-13.7
		C161.2,79.6,157.9,71.3,145.2,71.3z M54,108.8c7.1-1.2,8.9,1.3,8.7,3.7c-0.7,7.1-7.2,8.7-12.9,8.6c-4.1-0.1-7.8-2-7.9-6.7
		c-0.2-8.3,8.3-27.6,12.3-34c1.8-3,4.1-4.5,7.7-4.5c3.4,0,4.3,1.7,4.2,3.8C66,85.2,57,102.2,54,108.8z M77.1,102.3
		c-0.5,1.3-1.4,3.9-2.1,6.8c2.3-0.6,4.1-1,7.1-0.9c3.4,0.1,5.6,1.5,5.6,4.3c0,6.8-7.6,8.8-12.8,8.8c-5.8,0-10.8-3.3-10.8-9.6
		c0-7.4,4-18.6,7.7-26c4.6-9.1,9.3-10.4,17.4-10.4c3.6,0,7.7,1.5,7.7,4.9c0,4.7-3.9,6.4-7.9,6.7c-1.7,0.1-4.2,0.2-5.8,0.1
		c0,0-1.3,2-2.7,5.5c7.3-1,10.3,0.6,9.1,4.8C88,103,83.1,103.3,77.1,102.3z M112.8,84.6c-2,0-3.2,1.2-4.2,2.6
		c-2.1,3-6.7,14.8-7.4,19.6c-0.5,3.3,1,4,2.5,4c2.5,0,5.3-2.7,6.3-7.1c0,0-4.8-0.1-3.5-4.4c1.3-4.1,3.7-5,7.8-5.2
		c8-0.3,7.2,5.6,6.5,8.7c-2.1,10.2-9.3,18.4-19.6,18.4c-7,0-11.4-3.9-11.4-11c0-5.1,2.5-13.1,4.5-17.8c4.3-10,8.7-16.9,20.1-16.9
		c6.8,0,12.2,2.5,11.4,8.9c-0.6,4.7-2.9,7.5-7.2,7.8c-1.2,0.1-6.1,0-4.5-4.7C115,85.9,115.2,84.6,112.8,84.6z M155.8,93.1
		c-1.2,6-3.9,13.1-6.9,18.4c-4.8,8.6-10.6,9.8-15.7,9.8c-5.1-0.1-10.8-1.9-10.9-9.8c0-5.6,2.4-13.6,4.5-18.8
		c3.6-9.5,7.3-17.2,18.9-17C159.3,75.7,156.9,87.8,155.8,93.1z M146.2,87.1c-0.1,3.6-5.5,18.1-7.3,21.3c-0.8,1.4-1.7,2.5-3.4,2.5
		c-1.4,0-2.1-1-2.1-2.2c-0.1-3.3,5.9-19.7,7.9-22.3c0.9-1.4,1.9-1.6,3.1-1.6C146,84.9,146.2,86.1,146.2,87.1z"/>
</g>
</svg>
